<?xml version="1.0" encoding="UTF-8" standalone="no"?>
<!-- Generator: Adobe Illustrator 27.5.0, SVG Export Plug-In . SVG Version: 6.00 Build 0)  -->

<svg
   version="1.1"
   x="0px"
   y="0px"
   viewBox="0 0 500 500"
   style="enable-background:new 0 0 500 500;"
   xml:space="preserve"
   id="svg44"
   sodipodi:docname="VR.svg"
   inkscape:export-filename="3899143_2060504.svg"
   inkscape:export-xdpi="96"
   inkscape:export-ydpi="96"
   inkscape:version="1.3.2 (091e20e, 2023-11-25, custom)"
   xmlns:inkscape="http://www.inkscape.org/namespaces/inkscape"
   xmlns:sodipodi="http://sodipodi.sourceforge.net/DTD/sodipodi-0.dtd"
   xmlns="http://www.w3.org/2000/svg"
   xmlns:svg="http://www.w3.org/2000/svg"><defs
   id="defs44" /><sodipodi:namedview
   id="namedview44"
   pagecolor="#505050"
   bordercolor="#eeeeee"
   borderopacity="1"
   inkscape:showpageshadow="0"
   inkscape:pageopacity="0"
   inkscape:pagecheckerboard="0"
   inkscape:deskcolor="#505050"
   inkscape:zoom="1"
   inkscape:cx="118"
   inkscape:cy="294.5"
   inkscape:window-width="1920"
   inkscape:window-height="991"
   inkscape:window-x="-9"
   inkscape:window-y="-9"
   inkscape:window-maximized="1"
   inkscape:current-layer="OBJECTS" />
<g
   id="BACKGROUND">
</g>
<g
   id="OBJECTS"
   transform="matrix(1.0038643,0,0,1.0038643,-520.82912,-12.806298)">
	<g
   id="g5">
		<g
   id="g4">
			<g
   id="g1">
				<path
   d="m 99.321,81.879 c 0,2.087 -1.328,3.795 -3.795,3.795 -2.277,0 -3.795,-1.708 -3.795,-3.606 0,-2.088 1.518,-3.985 3.795,-3.985 2.277,0 3.795,1.709 3.795,3.796 z"
   id="path1" />
			</g>
			<g
   id="g2">
				<rect
   x="91.730003"
   y="87.571999"
   width="7.5910001"
   height="24.67"
   id="rect1" />
			</g>
			<g
   id="g3">
				<path
   style="enable-background:new 0 0 500 500;fill:#000000;fill-opacity:1;stroke:#000000;stroke-width:4;stroke-linecap:round;stroke-linejoin:round;stroke-miterlimit:10"
   d="m 271.27,426.644 h -42.423 c -6.966,0 -12.613,-5.647 -12.613,-12.613 v -42.423 c 0,-6.966 5.647,-12.613 12.613,-12.613 h 42.423 c 6.966,0 12.613,5.647 12.613,12.613 v 42.423 c 0,6.966 -5.647,12.613 -12.613,12.613 z"
   id="path21"
   transform="matrix(6.8393451,0,0,6.8393451,-943.17577,-2423.3083)" /><path
   d="m 117.539,87.952 c -3.985,0 -6.262,2.277 -7.211,3.795 h -0.19 l -0.38,-3.226 h -6.832 c 0,2.088 0.19,4.554 0.19,7.401 v 16.32 h 7.591 V 98.769 c 0,-0.759 0,-1.328 0.19,-1.898 0.569,-1.328 1.518,-3.036 3.605,-3.036 2.657,0 3.796,2.277 3.796,5.314 v 13.094 h 7.591 V 98.2 c 0,-7.022 -3.606,-10.248 -8.35,-10.248 z"
   id="path2" />
			</g>
		</g>
		<path
   style="fill:none;stroke:#000000;stroke-width:4;stroke-linecap:round;stroke-linejoin:round;stroke-miterlimit:10"
   d="M 130.021,128.988 H 87.598 c -6.966,0 -12.613,-5.647 -12.613,-12.613 V 73.952 c 0,-6.966 5.647,-12.613 12.613,-12.613 h 42.423 c 6.966,0 12.613,5.647 12.613,12.613 v 42.423 c 0,6.966 -5.647,12.613 -12.613,12.613 z"
   id="path4" />
	</g>
	<g
   id="g7">
		<g
   id="g6">
			<path
   d="m 117.23,194.107 c 0.019,0.102 0.026,0.205 0.019,0.309 0.023,-0.103 0.023,-0.207 -0.019,-0.309 z"
   id="path5" />
			<path
   d="m 109.529,177.274 c -21.74,0 -22.121,1.933 -22.121,17.033 0,15.1 0.381,17.033 22.121,17.033 21.74,0 22.121,-1.933 22.121,-17.033 0,-15.099 -0.38,-17.033 -22.121,-17.033 z m 7.049,18.147 -9.982,4.825 c -0.803,0.388 -1.735,-0.197 -1.735,-1.088 v -9.43 c 0,-0.882 0.914,-1.467 1.715,-1.098 l 9.982,4.605 c 0.387,0.178 0.605,0.512 0.672,0.872 0.042,0.102 0.042,0.206 0.019,0.309 -0.027,0.405 -0.245,0.799 -0.671,1.005 z"
   id="path6" />
		</g>
		<path
   style="fill:none;stroke:#000000;stroke-width:4;stroke-linecap:round;stroke-linejoin:round;stroke-miterlimit:10"
   d="M 130.021,228.132 H 87.598 c -6.966,0 -12.613,-5.647 -12.613,-12.613 v -42.423 c 0,-6.966 5.647,-12.613 12.613,-12.613 h 42.423 c 6.966,0 12.613,5.647 12.613,12.613 v 42.423 c 0,6.966 -5.647,12.613 -12.613,12.613 z"
   id="path7" />
	</g>
	<g
   id="g9">
		<g
   id="g8">
			<path
   d="m 267.225,186.163 c -0.779,-6.002 -4.346,-10.038 -9.914,-12.257 -4.273,-1.703 -8.653,-1.589 -13.021,-0.335 -3.117,0.896 -5.773,2.554 -7.87,5.053 -2.157,2.571 -3.33,5.549 -3.647,8.882 -0.341,3.582 0.521,6.837 2.624,9.757 0.685,0.951 1.544,1.716 2.586,2.263 0.701,0.368 0.889,0.28 1.077,-0.479 0.175,-0.707 0.31,-1.427 0.535,-2.118 0.229,-0.702 0.207,-1.302 -0.328,-1.866 -0.215,-0.226 -0.348,-0.535 -0.494,-0.819 -2.456,-4.749 -1.16,-10.93 3.136,-14.243 3.979,-3.069 8.429,-3.514 13.047,-1.699 3.178,1.249 5.253,3.671 6.038,6.99 0.956,4.041 0.422,7.967 -1.648,11.592 -1.376,2.41 -3.398,4 -6.296,4.173 -2.147,0.128 -4.105,-1.172 -4.476,-3.342 -0.135,-0.791 0.011,-1.559 0.229,-2.314 0.553,-1.911 1.125,-3.817 1.67,-5.731 0.298,-1.046 0.473,-2.113 0.404,-3.21 -0.142,-2.289 -1.985,-3.686 -4.215,-3.16 -1.538,0.363 -2.535,1.402 -3.188,2.771 -1.136,2.382 -1.023,4.82 -0.184,7.258 0.122,0.356 0.147,0.676 0.062,1.034 -0.804,3.369 -1.526,6.761 -2.419,10.106 -0.864,3.235 -1.249,6.488 -0.846,9.81 0.061,0.507 0.361,1.407 0.361,1.407 l 1.412,0.299 c 0.041,-0.053 0.248,-0.431 0.45,-0.826 1.563,-3.07 2.819,-5.296 3.463,-8.273 0.304,-1.405 0.717,-2.787 1.09,-4.177 0.039,-0.145 0.017,-0.363 0.193,-0.41 0.199,-0.053 0.243,0.174 0.328,0.293 0.41,0.574 0.928,1.028 1.519,1.402 1.57,0.994 3.285,1.361 5.135,1.256 3.175,-0.181 5.92,-1.363 8.156,-3.592 4.307,-4.291 5.794,-9.624 5.031,-15.495 z"
   id="path8" />
		</g>
		<path
   style="fill:none;stroke:#000000;stroke-width:4;stroke-linecap:round;stroke-linejoin:round;stroke-miterlimit:10"
   d="m 271.27,228.132 h -42.423 c -6.966,0 -12.613,-5.647 -12.613,-12.613 v -42.423 c 0,-6.966 5.647,-12.613 12.613,-12.613 h 42.423 c 6.966,0 12.613,5.647 12.613,12.613 v 42.423 c 0,6.966 -5.647,12.613 -12.613,12.613 z"
   id="path9" />
	</g>
	<g
   id="g11">
		<g
   id="g10">
			<path
   d="m 412.565,207.118 c -1.931,-1.257 -3.276,-1.959 -4.406,-2.916 -1.132,-0.96 -2.16,-2.093 -3.04,-3.293 -2.697,-3.679 -3.004,-6.533 2.077,-8.177 0.431,-0.139 0.857,-0.398 0.549,-1 -4.977,0.109 -5.089,-0.012 -5.047,-5.217 0.026,-3.236 0.181,-6.462 -2.215,-9.167 -3.181,-3.59 -8.966,-5.005 -14.019,-3.263 -4.473,1.543 -7.06,5.441 -7.118,10.765 -0.014,1.27 -0.034,2.547 0.078,3.808 0.223,2.498 -0.954,3.351 -3.307,3.1 -0.523,-0.056 -1.34,-0.749 -1.654,0.374 5.625,3.3 5.892,5.067 1.711,10.006 -1.647,1.945 -3.824,3.203 -5.999,5.034 3.327,-0.125 4.269,3.893 7.349,3.73 3.073,-0.163 5.61,0.854 8.062,2.555 3.487,2.419 7.129,2.337 10.75,0.236 1.594,-0.924 3.123,-2.616 4.902,-2.389 4.46,0.57 7.043,-2.999 11.327,-4.186 z"
   id="path10" />
		</g>
		<path
   style="fill:none;stroke:#000000;stroke-width:4;stroke-linecap:round;stroke-linejoin:round;stroke-miterlimit:10"
   d="m 412.345,228.132 h -42.423 c -6.966,0 -12.613,-5.647 -12.613,-12.613 v -42.423 c 0,-6.966 5.647,-12.613 12.613,-12.613 h 42.423 c 6.966,0 12.613,5.647 12.613,12.613 v 42.423 c -0.001,6.966 -5.648,12.613 -12.613,12.613 z"
   id="path11" />
	</g>
	<g
   id="g13">
		<g
   id="g12">
			<path
   d="m 108.808,270.422 c -12.865,0 -23.294,10.429 -23.291,23.296 0,12.862 10.429,23.291 23.291,23.291 12.867,0 23.294,-10.429 23.294,-23.291 0,-12.867 -10.427,-23.296 -23.294,-23.296 z m 15.366,10.656 c 2.788,3.393 4.476,7.72 4.525,12.437 -0.223,-0.046 -6.988,-1.514 -13.857,-0.648 -0.142,-0.339 -0.281,-0.686 -0.431,-1.028 -0.418,-0.975 -0.858,-1.939 -1.324,-2.884 7.849,-3.21 11.042,-7.818 11.087,-7.877 z m -15.366,-7.256 c 5.038,0 9.634,1.881 13.138,4.965 -0.056,0.081 -2.889,4.393 -10.388,7.201 -3.4,-6.241 -7.135,-11.201 -7.439,-11.606 1.504,-0.362 3.071,-0.56 4.689,-0.56 z m -4.765,0.58 -0.003,0.005 c 0,0 -0.02,0 -0.035,0.005 0,0 0.021,-0.005 0.038,-0.01 z m -3.722,1.319 c 0.268,0.367 3.947,5.352 7.386,11.464 -9.55,2.537 -17.845,2.438 -18.366,2.428 1.293,-6.157 5.433,-11.269 10.98,-13.892 z m -11.406,17.997 c 0,-0.213 0.01,-0.42 0.018,-0.633 0.347,0.01 10.176,0.233 20.42,-2.836 0.57,1.117 1.114,2.251 1.613,3.383 -0.261,0.076 -0.524,0.154 -0.782,0.238 C 99.45,297.344 94.007,307 94.007,307 l 0.013,0.015 c -3.173,-3.522 -5.105,-8.185 -5.105,-13.297 z m 19.891,19.888 c -4.613,0 -8.846,-1.582 -12.224,-4.218 v 0.01 c 0,0 -0.182,-0.137 -0.451,-0.352 0.147,0.124 0.304,0.228 0.451,0.342 0.078,-0.167 3.935,-8.348 15.609,-12.416 0.046,-0.015 0.089,-0.03 0.129,-0.046 2.8,7.269 3.957,13.363 4.251,15.108 -2.385,1.012 -5.01,1.572 -7.765,1.572 z m 11.117,-3.393 c -0.203,-1.188 -1.261,-7.026 -3.871,-14.207 6.431,-1.028 12.001,0.737 12.396,0.863 -0.883,5.546 -4.058,10.329 -8.525,13.344 z"
   id="path12" />
		</g>
		<path
   style="fill:none;stroke:#000000;stroke-width:4;stroke-linecap:round;stroke-linejoin:round;stroke-miterlimit:10"
   d="M 130.021,327.54 H 87.598 c -6.966,0 -12.613,-5.647 -12.613,-12.613 v -42.423 c 0,-6.966 5.647,-12.613 12.613,-12.613 h 42.423 c 6.966,0 12.613,5.647 12.613,12.613 v 42.423 c 0,6.966 -5.647,12.613 -12.613,12.613 z"
   id="path13" />
	</g>
	<g
   id="g15">
		<g
   id="g14">
			<path
   d="m 250.059,269.707 c -11.404,0 -20.647,9.138 -20.647,20.407 0,11.27 9.243,20.407 20.647,20.407 v 7.202 c 8.086,-4.014 20.647,-12.736 20.647,-27.61 0,-11.268 -9.243,-20.406 -20.647,-20.406 z m -2.401,23.387 c 0,3.188 -2.451,5.815 -5.57,6.093 -0.295,0.026 -0.547,-0.211 -0.547,-0.507 v -2.046 c 0,-0.255 0.19,-0.466 0.442,-0.504 1.275,-0.182 2.25,-1.169 2.514,-2.415 h -4.684 c -0.97,0 -1.757,-0.788 -1.757,-1.757 v -6.089 c 0,-0.97 0.788,-1.757 1.757,-1.757 h 6.089 c 0.97,0 1.757,0.788 1.757,1.757 v 7.225 z m 14.405,0 c 0,3.188 -2.451,5.815 -5.57,6.093 -0.295,0.026 -0.547,-0.211 -0.547,-0.507 v -2.046 c 0,-0.255 0.19,-0.466 0.442,-0.504 1.275,-0.185 2.25,-1.169 2.514,-2.415 h -4.684 c -0.97,0 -1.757,-0.788 -1.757,-1.757 v -6.089 c 0,-0.97 0.787,-1.757 1.757,-1.757 h 6.088 c 0.97,0 1.757,0.788 1.757,1.757 z"
   id="path14" />
		</g>
		<path
   style="fill:none;stroke:#000000;stroke-width:4;stroke-linecap:round;stroke-linejoin:round;stroke-miterlimit:10"
   d="m 271.27,327.54 h -42.423 c -6.966,0 -12.613,-5.647 -12.613,-12.613 v -42.423 c 0,-6.966 5.647,-12.613 12.613,-12.613 h 42.423 c 6.966,0 12.613,5.647 12.613,12.613 v 42.423 c 0,6.966 -5.647,12.613 -12.613,12.613 z"
   id="path15" />
	</g>
	<g
   id="g20">
		<g
   id="g19">
			<g
   id="g16">
				<path
   d="m 105.041,391.451 c 0,0 3.703,-0.288 3.703,-4.812 0,-4.53 -3.029,-6.734 -6.869,-6.734 h -12.63 v 25.296 h 12.63 c 0,0 7.712,0.252 7.712,-7.468 -0.002,-0.002 0.334,-6.282 -4.546,-6.282 z M 94.81,384.399 h 7.064 c 0,0 1.718,0 1.718,2.63 0,2.634 -1.01,3.016 -2.157,3.016 H 94.81 Z m 6.706,16.305 H 94.81 v -6.761 h 7.064 c 0,0 2.56,-0.035 2.56,3.474 0,2.958 -1.912,3.265 -2.918,3.287 z"
   id="path16" />
			</g>
			<g
   id="g17">
				<path
   d="m 119.869,386.338 c -9.336,0 -9.329,9.72 -9.329,9.72 0,0 -0.638,9.669 9.329,9.669 0,0 8.303,0.497 8.303,-6.726 h -4.27 c 0,0 0.141,2.722 -3.89,2.722 0,0 -4.274,0.298 -4.274,-4.403 h 12.57 c 0.001,-0.002 1.386,-10.982 -8.439,-10.982 z m 3.798,7.605 h -7.973 c 0,0 0.521,-3.898 4.27,-3.898 3.75,-0.001 3.703,3.898 3.703,3.898 z"
   id="path17" />
			</g>
			<g
   id="g18">
				<rect
   x="114.646"
   y="381.39099"
   width="10.014"
   height="3.119"
   id="rect17" />
			</g>
		</g>
		<path
   style="fill:none;stroke:#000000;stroke-width:4;stroke-linecap:round;stroke-linejoin:round;stroke-miterlimit:10"
   d="M 130.021,426.644 H 87.598 c -6.966,0 -12.613,-5.647 -12.613,-12.613 v -42.423 c 0,-6.966 5.647,-12.613 12.613,-12.613 h 42.423 c 6.966,0 12.613,5.647 12.613,12.613 v 42.423 c 0,6.966 -5.647,12.613 -12.613,12.613 z"
   id="path19" />
	</g>
	<g
   id="g22"
   transform="matrix(6.8393451,0,0,6.8393451,-943.17574,-2423.3083)"
   style="fill:#00ff00;fill-opacity:1">
		<g
   id="g21"
   style="fill:#00ff00;fill-opacity:1">
			<path
   d="m 260.32407,390.46521 c -1.57854,0.91457 -2.64146,0.76767 -3.88586,-0.52282 -3.22478,-3.34433 -6.58351,-6.55902 -9.81981,-9.89182 -1.08741,-1.12054 -1.8594,-1.18967 -2.93961,0.0115 -7.6954,8.55524 -15.43544,17.0716 -23.16109,25.59948 0.0778,0.11378 0.15555,0.22756 0.23333,0.3399 6.41355,-3.54452 12.87319,-7.01126 19.21473,-10.68109 1.92277,-1.11333 3.07931,-0.8224 4.52103,0.71438 3.05051,3.25214 6.29401,6.32137 9.42229,9.50006 1.00963,1.02548 1.80323,1.37691 2.95977,0.0864 5.45577,-6.08517 10.99075,-12.09976 16.48253,-18.15325 1.95733,-2.15753 3.87434,-4.35252 6.24792,-7.02279 -2.15609,0.21892 -3.25071,1.10469 -4.42309,1.7485 -4.96752,2.72788 -9.94943,5.43128 -14.85214,8.27151 z"
   id="path20"
   style="fill:#00ff00;fill-opacity:1;stroke-width:1.44028" />
		</g>
		
	</g>
	<g
   id="g24">
		<g
   id="g23">
			<path
   style="fill:none;stroke:#000000;stroke-width:3;stroke-linecap:round;stroke-linejoin:round;stroke-miterlimit:10"
   d="m 381.065,409.566 0.632,0.375 c 3.085,1.831 6.592,2.799 10.142,2.799 10.984,0 19.92,-8.937 19.92,-19.92 0,-10.984 -8.936,-19.92 -19.92,-19.92 -10.984,0 -19.92,8.936 -19.92,19.92 0,3.875 1.125,7.642 3.253,10.892 l 0.398,0.608 -2.529,8.192 z"
   id="path22" />
		</g>
		<path
   d="m 383.436,381.3 c -0.445,0.151 -0.818,0.416 -1.37,0.99 -1.22,1.277 -1.794,2.612 -1.873,4.405 -0.093,2.059 0.71,4.333 2.525,7.139 3.035,4.685 6.084,7.433 10.117,9.112 2.066,0.861 3.415,1.306 4.305,1.435 0.667,0.086 1.987,-0.108 2.805,-0.423 0.739,-0.287 1.772,-0.961 2.232,-1.464 0.703,-0.775 1.313,-2.497 1.313,-3.724 0,-0.509 -0.014,-0.574 -0.194,-0.775 -0.366,-0.402 -4.915,-2.777 -5.453,-2.848 -0.488,-0.065 -0.681,0.072 -1.485,1.012 -1.248,1.457 -1.636,1.837 -1.858,1.837 -0.258,0 -1.987,-0.868 -2.813,-1.413 -2.016,-1.334 -3.695,-3.164 -5.008,-5.489 -0.108,-0.187 -0.194,-0.366 -0.194,-0.409 0,-0.043 0.23,-0.33 0.509,-0.631 0.674,-0.739 0.897,-1.076 1.184,-1.772 0.33,-0.782 0.316,-0.99 -0.122,-2.174 -0.631,-1.722 -0.832,-2.26 -1.177,-3.186 -0.359,-0.961 -0.631,-1.385 -0.997,-1.536 -0.336,-0.144 -2.094,-0.201 -2.446,-0.086 z"
   id="path23" />
		<path
   style="fill:none;stroke:#000000;stroke-width:4;stroke-linecap:round;stroke-linejoin:round;stroke-miterlimit:10"
   d="m 412.345,426.644 h -42.423 c -6.966,0 -12.613,-5.647 -12.613,-12.613 v -42.423 c 0,-6.966 5.647,-12.613 12.613,-12.613 h 42.423 c 6.966,0 12.613,5.647 12.613,12.613 v 42.423 c -0.001,6.966 -5.648,12.613 -12.613,12.613 z"
   id="path24" />
	</g>
	
	
	<g
   id="g34">
		<path
   style="fill:none;stroke:#000000;stroke-width:4;stroke-linecap:round;stroke-linejoin:round;stroke-miterlimit:10"
   d="m 412.345,327.54 h -42.423 c -6.966,0 -12.613,-5.647 -12.613,-12.613 v -42.423 c 0,-6.966 5.647,-12.613 12.613,-12.613 h 42.423 c 6.966,0 12.613,5.647 12.613,12.613 v 42.423 c -0.001,6.966 -5.648,12.613 -12.613,12.613 z"
   id="path32" />
		<g
   id="g33">
			<path
   d="m 398.668,279.096 h 3.767 v -8.199 l -5.674,-0.006 c -8.038,0 -11.853,4.784 -11.853,11.595 v 6.452 h -6.294 v 7.79 h 6.294 v 19.812 h 9.442 v -19.812 h 6.295 l 1.788,-7.786 h -8.082 v -5.319 c -0.002,-2.179 1.188,-4.527 4.317,-4.527 z"
   id="path33" />
		</g>
	</g>
</g>
<g
   id="DESIGNED_BY_FREEPIK"
   transform="translate(-522.36717,-16.380852)">
	<g
   id="g44">
		<g
   id="XMLID_24_">
			<g
   id="XMLID_209_">
				<path
   id="XMLID_277_"
   style="fill:#1d262d"
   d="m 260.104,465.465 c -0.432,0.443 -0.803,0.931 -1.108,1.453 l -0.465,-0.241 c -0.067,-0.298 -0.349,-0.503 -0.659,-0.466 -0.331,0.039 -0.568,0.339 -0.529,0.67 0.039,0.331 0.339,0.568 0.67,0.529 0.065,-0.008 0.127,-0.026 0.183,-0.052 l 0.452,0.234 c -0.251,0.554 -0.433,1.139 -0.539,1.744 l 0.747,0.132 c 0.23,-1.306 0.85,-2.507 1.792,-3.473 z" />
				<path
   id="XMLID_265_"
   style="fill:#1d262d"
   d="m 265.592,463.163 c -0.171,0 -0.341,0.006 -0.51,0.017 l -0.074,-0.626 c 0.188,-0.149 0.296,-0.389 0.266,-0.645 -0.046,-0.393 -0.402,-0.674 -0.795,-0.628 -0.393,0.046 -0.674,0.402 -0.628,0.795 0.03,0.254 0.189,0.461 0.405,0.564 l 0.073,0.624 c -0.714,0.116 -1.403,0.332 -2.06,0.646 l 0.327,0.684 c 0.934,-0.447 1.942,-0.673 2.995,-0.673 0.496,0 0.993,0.053 1.475,0.158 l 0.161,-0.741 c -0.535,-0.116 -1.085,-0.175 -1.635,-0.175 z" />
				<path
   id="XMLID_264_"
   style="fill:#1d262d"
   d="m 272.194,465.711 c 0.331,-0.04 0.566,-0.341 0.526,-0.672 -0.04,-0.331 -0.341,-0.566 -0.672,-0.526 -0.309,0.038 -0.535,0.304 -0.53,0.609 l -0.416,0.363 c -0.418,-0.43 -0.89,-0.813 -1.408,-1.139 l -0.404,0.641 c 1.134,0.715 2.021,1.726 2.563,2.925 l 0.691,-0.313 c -0.251,-0.554 -0.568,-1.072 -0.942,-1.545 l 0.402,-0.351 c 0.061,0.013 0.125,0.016 0.19,0.008 z" />
				<path
   id="XMLID_263_"
   style="fill:#1d262d"
   d="m 265.044,473.372 c -0.386,0.023 -0.775,0.035 -1.157,0.035 -0.88,0 -1.733,-0.061 -2.478,-0.179 -0.39,-0.062 -0.846,-0.155 -1.27,-0.292 1.046,1.861 3.069,3.125 5.388,3.125 2.855,0 5.262,-1.916 5.95,-4.504 -0.682,0.449 -1.505,0.825 -2.459,1.123 -1.179,0.367 -2.554,0.606 -3.974,0.692 z" />
				<path
   id="XMLID_210_"
   style="fill:#1d262d"
   d="m 265.592,464.68 c -3.352,0 -6.08,2.666 -6.08,5.943 0,0.426 0.046,0.849 0.137,1.261 0.673,0.483 2.706,0.89 5.348,0.731 2.879,-0.173 5.297,-0.957 6.672,-2.159 -0.005,-0.195 -0.021,-0.39 -0.045,-0.582 -0.38,-2.961 -2.974,-5.194 -6.032,-5.194 z m -2.16,6.514 c -1.02,0 -1.85,-0.83 -1.85,-1.85 0,-1.02 0.83,-1.85 1.85,-1.85 1.02,0 1.85,0.83 1.85,1.85 0,1.021 -0.83,1.85 -1.85,1.85 z m 4.738,-0.908 c -0.75,0 -1.36,-0.61 -1.36,-1.36 0,-0.75 0.61,-1.361 1.36,-1.361 0.75,0 1.361,0.61 1.361,1.361 0,0.751 -0.611,1.36 -1.361,1.36 z" />
			</g>
			<path
   id="XMLID_183_"
   style="fill:#1d262d"
   d="m 281.595,466.547 c -0.295,-0.116 -0.805,-0.309 -1.382,-0.237 -0.551,0.069 -0.844,0.341 -0.844,1.007 v 0.866 h 2.228 v 1.717 h -2.228 v 5.455 h -1.932 V 469.9 h -1.34 v -1.717 h 1.34 v -0.888 c 0,-1.68 0.896,-2.783 2.568,-2.783 0.643,0 1.157,0.122 1.59,0.308 z" />
			<path
   id="XMLID_173_"
   style="fill:#1d262d"
   d="m 286.298,469.879 c -0.177,-0.03 -0.358,-0.046 -0.526,-0.046 -0.896,0 -1.51,0.548 -1.51,1.614 v 3.908 h -1.932 v -7.172 h 1.873 v 0.785 c 0.451,-0.673 1.14,-0.977 2.021,-0.977 0.414,0 0.848,0.128 1.094,0.337 z" />
			<path
   id="XMLID_138_"
   style="fill:#1d262d"
   d="m 293.965,471.757 c 0,0.222 -0.015,0.489 -0.037,0.651 h -5.085 c 0.207,1.036 0.933,1.488 1.843,1.488 0.622,0 1.295,-0.252 1.813,-0.688 l 1.132,1.243 c -0.814,0.748 -1.85,1.088 -3.057,1.088 -2.198,0 -3.723,-1.495 -3.723,-3.753 0,-2.258 1.48,-3.797 3.627,-3.797 2.066,0.001 3.48,1.533 3.487,3.768 z m -5.114,-0.666 h 3.175 c -0.177,-0.918 -0.733,-1.436 -1.562,-1.436 -0.91,0 -1.443,0.548 -1.613,1.436 z" />
			<path
   id="XMLID_69_"
   style="fill:#1d262d"
   d="m 301.618,471.757 c 0,0.222 -0.015,0.489 -0.037,0.651 h -5.085 c 0.207,1.036 0.933,1.488 1.843,1.488 0.622,0 1.295,-0.252 1.813,-0.688 l 1.132,1.243 c -0.814,0.748 -1.85,1.088 -3.057,1.088 -2.198,0 -3.723,-1.495 -3.723,-3.753 0,-2.258 1.48,-3.797 3.627,-3.797 2.066,0.001 3.48,1.533 3.487,3.768 z m -5.114,-0.666 h 3.175 c -0.178,-0.918 -0.733,-1.436 -1.562,-1.436 -0.91,0 -1.443,0.548 -1.613,1.436 z" />
			<path
   id="XMLID_325_"
   style="fill:#1d262d"
   d="m 309.964,471.764 c 0,2.154 -1.495,3.775 -3.471,3.775 -0.962,0 -1.643,-0.378 -2.109,-0.933 v 3.708 h -1.924 v -10.133 h 1.887 v 0.792 c 0.466,-0.585 1.155,-0.984 2.139,-0.984 1.983,0.001 3.478,1.621 3.478,3.775 z m -5.677,0 c 0,1.132 0.747,1.976 1.843,1.976 1.14,0 1.85,-0.881 1.85,-1.976 0,-1.095 -0.71,-1.976 -1.85,-1.976 -1.095,0 -1.843,0.844 -1.843,1.976 z" />
			<path
   id="XMLID_35_"
   style="fill:#1d262d"
   d="m 313.068,465.836 c 0,0.696 -0.54,1.229 -1.236,1.229 -0.696,0 -1.229,-0.533 -1.229,-1.229 0,-0.696 0.533,-1.243 1.229,-1.243 0.695,-0.001 1.236,0.547 1.236,1.243 z m -0.259,9.518 h -1.932 v -7.172 h 1.932 z" />
			<path
   id="XMLID_25_"
   style="fill:#1d262d"
   d="m 316.032,470.736 2.701,-2.554 h 2.368 l -3.479,3.375 3.501,3.797 h -2.376 l -2.716,-2.901 v 2.901 H 314.1 v -10.658 h 1.932 v 6.04 z" />
		</g>
		<g
   id="g43">
			<path
   style="fill:#1d262d"
   d="m 184.412,475.289 v -1.055 c -0.527,0.718 -1.391,1.23 -2.387,1.23 -1.846,0 -3.149,-1.406 -3.149,-3.706 0,-2.256 1.289,-3.721 3.149,-3.721 0.952,0 1.816,0.469 2.387,1.245 v -3.765 h 1.099 v 9.77 h -1.099 z m 0,-1.919 v -3.208 c -0.395,-0.615 -1.245,-1.143 -2.124,-1.143 -1.421,0 -2.27,1.172 -2.27,2.739 0,1.567 0.85,2.724 2.27,2.724 0.88,10e-4 1.729,-0.496 2.124,-1.112 z"
   id="path34" />
			<path
   style="fill:#1d262d"
   d="m 186.932,471.744 c 0,-2.051 1.465,-3.706 3.486,-3.706 2.139,0 3.398,1.67 3.398,3.794 v 0.279 h -5.727 c 0.088,1.333 1.025,2.446 2.549,2.446 0.805,0 1.626,-0.322 2.182,-0.894 l 0.527,0.718 c -0.703,0.703 -1.655,1.084 -2.812,1.084 -2.095,0 -3.603,-1.509 -3.603,-3.721 z m 3.471,-2.797 c -1.509,0 -2.256,1.274 -2.314,2.358 h 4.643 c -0.014,-1.055 -0.717,-2.358 -2.329,-2.358 z"
   id="path35" />
			<path
   style="fill:#1d262d"
   d="m 194.607,474.351 0.571,-0.791 c 0.469,0.542 1.362,1.011 2.329,1.011 1.084,0 1.67,-0.513 1.67,-1.216 0,-1.714 -4.38,-0.659 -4.38,-3.281 0,-1.098 0.952,-2.036 2.636,-2.036 1.201,0 2.051,0.454 2.622,1.026 l -0.513,0.762 c -0.424,-0.513 -1.201,-0.894 -2.109,-0.894 -0.967,0 -1.567,0.483 -1.567,1.113 0,1.552 4.38,0.527 4.38,3.281 0,1.187 -0.952,2.138 -2.783,2.138 -1.157,10e-4 -2.138,-0.351 -2.856,-1.113 z"
   id="path36" />
			<path
   style="fill:#1d262d"
   d="m 201.477,466.471 c 0,-0.41 0.337,-0.747 0.732,-0.747 0.41,0 0.747,0.337 0.747,0.747 0,0.41 -0.337,0.732 -0.747,0.732 -0.395,0 -0.732,-0.322 -0.732,-0.732 z m 0.19,8.818 v -7.075 h 1.099 v 7.075 z"
   id="path37" />
			<path
   style="fill:#1d262d"
   d="m 204.582,477.105 0.556,-0.82 c 0.586,0.703 1.289,0.967 2.3,0.967 1.172,0 2.27,-0.571 2.27,-2.124 v -1.011 c -0.513,0.718 -1.377,1.26 -2.373,1.26 -1.845,0 -3.149,-1.377 -3.149,-3.662 0,-2.27 1.289,-3.677 3.149,-3.677 0.952,0 1.802,0.469 2.373,1.245 v -1.069 h 1.098 v 6.87 c 0,2.344 -1.641,3.076 -3.369,3.076 -1.2,0 -2.02,-0.234 -2.855,-1.055 z m 5.127,-3.852 v -3.091 c -0.381,-0.615 -1.23,-1.143 -2.109,-1.143 -1.421,0 -2.27,1.128 -2.27,2.695 0,1.553 0.849,2.695 2.27,2.695 0.878,0.001 1.728,-0.541 2.109,-1.156 z"
   id="path38" />
			<path
   style="fill:#1d262d"
   d="m 217.413,475.289 v -4.629 c 0,-1.245 -0.63,-1.641 -1.582,-1.641 -0.865,0 -1.685,0.527 -2.095,1.099 v 5.17 h -1.099 v -7.075 h 1.099 v 1.025 c 0.498,-0.586 1.465,-1.201 2.519,-1.201 1.48,0 2.256,0.747 2.256,2.285 v 4.966 h -1.098 z"
   id="path39" />
			<path
   style="fill:#1d262d"
   d="m 219.932,471.744 c 0,-2.051 1.465,-3.706 3.486,-3.706 2.139,0 3.398,1.67 3.398,3.794 v 0.279 h -5.727 c 0.088,1.333 1.025,2.446 2.549,2.446 0.806,0 1.626,-0.322 2.183,-0.894 l 0.527,0.718 c -0.703,0.703 -1.655,1.084 -2.812,1.084 -2.095,0 -3.604,-1.509 -3.604,-3.721 z m 3.472,-2.797 c -1.509,0 -2.256,1.274 -2.314,2.358 h 4.643 c -0.015,-1.055 -0.718,-2.358 -2.329,-2.358 z"
   id="path40" />
			<path
   style="fill:#1d262d"
   d="m 233.35,475.289 v -1.055 c -0.527,0.718 -1.392,1.23 -2.388,1.23 -1.846,0 -3.149,-1.406 -3.149,-3.706 0,-2.256 1.289,-3.721 3.149,-3.721 0.952,0 1.817,0.469 2.388,1.245 v -3.765 h 1.098 v 9.77 h -1.098 z m 0,-1.919 v -3.208 c -0.396,-0.615 -1.245,-1.143 -2.124,-1.143 -1.421,0 -2.27,1.172 -2.27,2.739 0,1.567 0.849,2.724 2.27,2.724 0.879,10e-4 1.728,-0.496 2.124,-1.112 z"
   id="path41" />
			<path
   style="fill:#1d262d"
   d="m 239.692,475.289 v -9.77 h 1.098 v 3.765 c 0.572,-0.776 1.421,-1.245 2.388,-1.245 1.845,0 3.149,1.465 3.149,3.721 0,2.299 -1.304,3.706 -3.149,3.706 -0.996,0 -1.86,-0.513 -2.388,-1.23 v 1.055 h -1.098 z m 3.208,-0.806 c 1.436,0 2.285,-1.157 2.285,-2.724 0,-1.568 -0.85,-2.739 -2.285,-2.739 -0.864,0 -1.728,0.527 -2.109,1.143 v 3.208 c 0.38,0.615 1.245,1.112 2.109,1.112 z"
   id="path42" />
			<path
   style="fill:#1d262d"
   d="m 247.528,477.061 c 0.161,0.073 0.425,0.117 0.601,0.117 0.483,0 0.805,-0.161 1.055,-0.747 l 0.469,-1.069 -2.959,-7.148 h 1.187 l 2.358,5.8 2.344,-5.8 h 1.201 l -3.545,8.51 c -0.425,1.025 -1.143,1.421 -2.08,1.435 -0.234,0 -0.601,-0.044 -0.806,-0.103 z"
   id="path43" />
		</g>
	</g>
</g>
</svg>
